PathFileType	4	(X/Y/Z)	69_1_52_p1_0-324_filt_butterworth.trc
DataRate	CameraRate	NumFrames	NumMarkers	Units	OrigDataRate	OrigDataStartFrame	OrigNumFrames
59.0	59.0	6	27	m	59.0	121	324
Frame#	Time	RHip			RKnee			RAnkle			RBigToe			RSmallToe			RHeel			LHip			LKnee			LAnkle			LBigToe			LSmallToe			LHeel			Neck			Head			Nose			RShoulder			RElbow			RWrist			RThumb			RIndex			RPinky			LShoulder			LElbow			LWrist			LThumb			LIndex			LPinky			
		X1	Y1	Z1	X2	Y2	Z2	X3	Y3	Z3	X4	Y4	Z4	X5	Y5	Z5	X6	Y6	Z6	X7	Y7	Z7	X8	Y8	Z8	X9	Y9	Z9	X10	Y10	Z10	X11	Y11	Z11	X12	Y12	Z12	X13	Y13	Z13	X14	Y14	Z14	X15	Y15	Z15	X16	Y16	Z16	X17	Y17	Z17	X18	Y18	Z18	X19	Y19	Z19	X20	Y20	Z20	X21	Y21	Z21	X22	Y22	Z22	X23	Y23	Z23	X24	Y24	Z24	X25	Y25	Z25	X26	Y26	Z26	X27	Y27	Z27	
121	2.0508474576271185	0.2774276524766996	0.536124929435497	0.6028740103238418	0.2531280850788336	0.5395406746315176	0.9402117210231716	0.2332837489932229	0.5756136958034694	1.3201631932294897	0.2763979447304237	0.36643189812108334	1.287963629858165	0.3269011132747073	0.41444635340747027	1.2951816838027328	0.18184205662245387	0.70455507161991	1.43774269085568	0.07492234026706025	0.4486239277428131	0.5880827838716404	0.052959892669547474	0.5150723796366841	0.9570513601273669	0.022333429889191677	0.5744289486052473	1.3562428145783263	0.14279254674251082	0.34111713856724785	1.2790064675177641	0.085454164553674	0.3760914708220069	1.2996475657209268	-0.0011419255102573297	0.6005547278385632	1.4062992018599947	0.2142654461987138	0.5098822314394552	0.01846104733881	0.2567700363976807	0.44845091672069504	-0.23178428337115534	0.26427886330856737	0.3770473557896575	-0.10705778851569536	0.3554628535041777	0.5668508799946163	0.11224427204661042	0.3759128455620873	0.6547487417832704	0.3666871704176504	0.37135336871802666	0.4975119074397719	0.5120713304911879	0.31487400508834973	0.39975848103224165	0.5721270297763413	0.32137885141855005	0.40956871500532216	0.5983374123479985	0.34711337065414455	0.4459014248720167	0.6324197116579956	0.058108636039352284	0.4459041203218219	0.09821958465633229	-0.033721264348836086	0.4649478586008854	0.31315627228456067	0.06678174145165668	0.37298976317100074	0.436405410287402	0.1484581036799767	0.3614223631650359	0.4745632713811642	0.1541920942972485	0.32884328262576523	0.47885059993298795	0.12639653688552147	0.3193098503185525	0.5179292048056193
122	2.067796610169492	0.27918617102802745	0.532664231641948	0.6000725701996393	0.25320583283574627	0.5394786277282754	0.9400042953124683	0.23375719262868228	0.5756351760926209	1.3197150645965092	0.2769030838352854	0.3665672087231169	1.2856312710733029	0.3272482610066266	0.41236117994887467	1.2936224833896355	0.18167429615391759	0.704518507516261	1.437487124112328	0.07573991755240977	0.4448640217221824	0.5858852648965338	0.05287396311890755	0.5151580031554511	0.9564742576014568	0.018495571834290837	0.5792675790829908	1.3564645529648478	0.14161423336579507	0.34266845185324285	1.277750754100741	0.08249639181275582	0.37970387403591127	1.299811677038547	-0.0009402459640104918	0.6002626918975869	1.4076336110193712	0.21423912112071714	0.5098660067350185	0.018776466270585	0.2567327896221457	0.4485981232215072	-0.23133600284284347	0.26462786136885363	0.37727622876971156	-0.1065864718584697	0.35546657336617055	0.5633443877303245	0.11183449642139326	0.3784771488851055	0.6505555378067501	0.36373042513819975	0.3710228664913589	0.4977396967206811	0.5101743071842924	0.31484110317203867	0.3993980634324933	0.5701323771960496	0.3211903888421145	0.4097835220862366	0.5939899192460487	0.3478127006293798	0.4443113559577814	0.6314158559926032	0.058338807156102665	0.44447896683515353	0.0956191702826038	-0.03369226171685633	0.464674794707329	0.3118111531001643	0.066401914537735	0.37792067004044755	0.43057472369307254	0.15051600390484626	0.3686084712234333	0.47309260651695684	0.1555127635368585	0.33123653201232606	0.47607241652406934	0.1264665116859044	0.32562032375389505	0.5125880284682758
123	2.0847457627118646	0.2830238758078602	0.5310458444766227	0.5957957313589748	0.25329728270425367	0.539320634253843	0.9398998972491841	0.23419524460180974	0.5754692934968766	1.3192584515132275	0.27773699847399214	0.3667179727062203	1.2834578854707805	0.32741475681429333	0.4118707760091693	1.2929075453992973	0.18047431989774182	0.7061385756547773	1.4382270934805823	0.07650451167902976	0.44427739026536267	0.5829128112165745	0.052853482436511806	0.5152217350411389	0.9561755424077094	0.015290304490651708	0.5830350579403879	1.356063156590917	0.13910272655095757	0.3436044678770008	1.2766999360531377	0.08099503652710507	0.38164084246603963	1.29971397453269	-0.0005925099738137035	0.6012126176736037	1.4099262633250869	0.2141516878774475	0.5100181895836654	0.018143862558108168	0.2567755914453438	0.44851197338460996	-0.23151188588476257	0.26570102138774954	0.3780466421615496	-0.10688500684815391	0.35555704181572356	0.5591030460178786	0.1112711865988889	0.38057226865888905	0.6469710163552485	0.35923669402339037	0.37222952415290533	0.4974843248908397	0.507330397893804	0.31488361172487384	0.3991776990002528	0.5675159358922081	0.32314855918018176	0.4074317094467196	0.5873674807839708	0.3496440309221225	0.44050337381093047	0.6282849833303613	0.058364608460946016	0.4447379026594278	0.09261435478402884	-0.034657963115001425	0.4652361117339595	0.3090226279883055	0.06605845549488959	0.38203395015003677	0.4236221950262866	0.15458351453614383	0.37036604056445505	0.46864533767486544	0.15699706724915222	0.33199677676749983	0.47293885467607577	0.12635443038288396	0.3304094732455994	0.5045925335550947
124	2.101694915254237	0.287913439675931	0.5300741494189608	0.5914495526107447	0.2534343363838381	0.538949805855808	0.9398966083973086	0.2346045837693398	0.575137955685141	1.3189378960132472	0.278554478278651	0.36684342464315556	1.2819242982218233	0.3274961738448995	0.41347709050757997	1.2919201480090057	0.1778304215136283	0.7096480956059585	1.4403182825591139	0.07687000032661244	0.4466968313308796	0.5783673722631312	0.052860506282412636	0.515284310176596	0.9560623493797445	0.013987808578045952	0.584278200834627	1.355397620588037	0.1362760968310721	0.34389838837895315	1.276443098136322	0.08078650586107261	0.38202098652201855	1.2996045642759388	-0.00028332220947976776	0.6040477436631809	1.4127146120981295	0.21403927677125661	0.5102981154714739	0.01653363038759028	0.25688117173154995	0.44818773380328675	-0.23264986197113777	0.26713314322888754	0.3791480030283336	-0.10817980287365397	0.35635958521626643	0.5558734256106631	0.11029355429650228	0.38262277327331806	0.6439085132053886	0.3528164954792799	0.37627115439758707	0.49422456055084374	0.502721292453562	0.3151270195535953	0.3990028536410749	0.5645054330837259	0.32598080846306354	0.4034937530012716	0.5802056867889963	0.3523285665271675	0.43406602640941133	0.6223459151922489	0.05832628503634024	0.4455280077554429	0.08948876299179048	-0.03721478461628572	0.4674867438373941	0.3052754252052904	0.06604225441520825	0.38417333046047397	0.41592793014930995	0.16045365100082074	0.365668338717485	0.4609196667530554	0.15967913975643566	0.33012720562748865	0.46840856808084913	0.1263957431436422	0.3319128750773138	0.49505786953542524
125	2.1186440677966103	0.291639837368162	0.5288083318589663	0.587752147278966	0.2536416331169921	0.5384098169958418	0.9397316030615723	0.2346771972298381	0.5750763047849882	1.3188947663822317	0.27881338089558183	0.36708087699453873	1.2815580612664537	0.327580880742512	0.4166672403133822	1.2907813537728974	0.17456158177509015	0.7139593300102113	1.4430684553470212	0.07616256652975009	0.4522391497815686	0.5726037084924555	0.052867447682054834	0.5152855956672651	0.9558778463385882	0.014897014160843559	0.5828022518166369	1.3541438343783367	0.13522845936086125	0.3425923482671888	1.2764951433978657	0.08189585522480675	0.38072030938531437	1.2989308393430614	-0.00023657015586654848	0.6079141324249575	1.4152166796612398	0.21391422628812698	0.5106840869576005	0.014274152822305547	0.2570185761920157	0.4477071414259213	-0.23501478078152732	0.26828697162381915	0.38016515786990634	-0.1104596578821611	0.3584072041140125	0.5535755112849265	0.10814805023331049	0.38588105300502396	0.6400508786200297	0.3449348160846287	0.3830451360398982	0.48645098400308956	0.49623117026802804	0.31556314147794284	0.39875295050475573	0.5605672602405428	0.32805515743163866	0.3992851516903331	0.5747400961899822	0.3553283949609767	0.42545500056794405	0.6144661855829728	0.05828860416196097	0.4461481986556487	0.08684775820249747	-0.04063749438125641	0.47085743936191465	0.3018439672502928	0.06650441243572047	0.3849810510173797	0.4082013368959112	0.16733950350621138	0.356843178797758	0.451006311633062	0.16488724982784925	0.325147108081317	0.4620512558063326	0.12665714039676854	0.3311637945611076	0.48607149246253656
126	2.135593220338983	0.2929970057372871	0.5283049000229467	0.5847363856519494	0.2538622032932147	0.5379098778396532	0.9387964018842404	0.23370800363893895	0.5763386715368536	1.319680006801962	0.27775696518364934	0.3683034616322621	1.283308067129894	0.3276861040914315	0.4192979426419806	1.2912777712155505	0.1720028993204387	0.7172998253454353	1.4449997562794548	0.0746473948400742	0.46016786937863086	0.5672455154081307	0.05286275010089093	0.5150837829461876	0.9551779612797211	0.01783837513308846	0.5790303719792004	1.351826640162719	0.13684763748779627	0.3392652923127441	1.275950768370647	0.08447462368881523	0.3774520547138703	1.297436355281697	-0.0004612162748063091	0.6109951087354524	1.4167916095453346	0.21375256122903108	0.5111830769118397	0.011629223569614707	0.25718251185708974	0.4472131917069999	-0.23840211897654187	0.2687774469456528	0.3807596482527535	-0.11326393567186284	0.36119770507303034	0.5505169117323825	0.10445118942619008	0.39005112688447624	0.6354552187455726	0.3376496534511187	0.39067339054717803	0.4761784380753197	0.4890392404444851	0.316169240387243	0.3982460495248511	0.5552962837236746	0.32879811832157235	0.39512083418439475	0.5714826161304466	0.35858614731758737	0.4160365311865112	0.6064546727058369	0.05829156685332078	0.44635244482301295	0.0847057411752608	-0.04322181068655485	0.47344208373772567	0.29930119554654644	0.06781523253669486	0.38518524166198953	0.4015018106645555	0.1737043814908604	0.34844650161471014	0.4399845566933138	0.17291124484266585	0.31767589987724015	0.4541376579448224	0.12698281136590112	0.3302339261180436	0.4790919907659389
